# xmcd
#
# Track frame offsets:
#	150
#	22455
#	40027
#	56450
#	70885
#	98325
#	117076
#	135176
#	157888
#	174383
#
# Disc length: 2353 seconds
# Revision: 0
# Processed by: cddbd v1.5.2PL0 Copyright (c) Steve Scherf et al.
# Submitted via: dBpowerAMP V12.0
#
DISCID=73092f0a
DTITLE=Andrea Marr Band - Andrea Marr Band "Live At The MBAS House Of Blues"
DYEAR=2015
DGENRE=Blues Female
TTITLE0=Love Me With A Feeling 
TTITLE1=Who Am I To Judge You 
TTITLE2=Take It To The Bedroom
TTITLE3=Who Do You Love 
TTITLE4=Mama Got It Wrong Sometimes Too 
TTITLE5=New Orleans 
TTITLE6=Sugar Sweet 
TTITLE7=Shake Your Money Maker 
TTITLE8=Keep On Standing 
TTITLE9=Good Night and Band Intro 
EXTD=
EXTT0=
EXTT1=
EXTT2=
EXTT3=
EXTT4=
EXTT5=
EXTT6=
EXTT7=
EXTT8=
EXTT9=
PLAYORDER=
